<?xml version="1.0" encoding="UTF-8" standalone="no"?> <svg width="64" height="64" viewBox="0 0 64 64" fill="none" xmlns="http://www.w3.org/2000/svg">
<path d="M50.93 18.25C50.5493 16.8779 49.7266 15.6696 48.5893 14.8127C47.4521 13.9557 46.0639 13.4978 44.64 13.51H19.36C17.9283 13.5002 16.5336 13.9649 15.3938 14.8315C14.2541 15.6981 13.4334 16.9178 13.06 18.3L11 28C10.9683 28.1477 10.9704 28.3006 11.0062 28.4474C11.042 28.5941 11.1106 28.7309 11.2068 28.8473C11.3031 28.9637 11.4244 29.0569 11.5618 29.1197C11.6992 29.1825 11.849 29.2134 12 29.21H52C52.151 29.2134 52.3008 29.1825 52.4382 29.1197C52.5756 29.0569 52.697 28.9637 52.7932 28.8473C52.8894 28.7309 52.958 28.5941 52.9938 28.4474C53.0297 28.3006 53.0318 28.1477 53 28L50.93 18.25Z" fill="#0071BC"/>
<path d="M60 20.35H53.94C53.6747 20.35 53.4204 20.4554 53.2329 20.6429C53.0453 20.8305 52.94 21.0848 52.94 21.35V23.28H52L50.94 18.28C50.5593 16.9079 49.7365 15.6997 48.5993 14.8427C47.4621 13.9857 46.0739 13.5278 44.65 13.54H19.36C17.9282 13.5303 16.5335 13.995 15.3938 14.8615C14.254 15.7281 13.4333 16.9478 13.06 18.33L12.01 23.33H11.06V21.35C11.06 21.0848 10.9546 20.8305 10.7671 20.6429C10.5795 20.4554 10.3252 20.35 10.06 20.35H3.99996C3.73474 20.35 3.48039 20.4554 3.29285 20.6429C3.10532 20.8305 2.99996 21.0848 2.99996 21.35V25.18C2.99688 25.4197 3.07999 25.6525 3.23417 25.8361C3.38835 26.0196 3.60334 26.1417 3.83996 26.18L9.88996 27.18C10.0348 27.205 10.1833 27.1978 10.325 27.1589C10.4667 27.1199 10.5981 27.0503 10.7098 26.9548C10.8215 26.8593 10.9108 26.7404 10.9713 26.6065C11.0318 26.4726 11.0621 26.327 11.06 26.18V25.28H11.59L11 27.94C9.90798 28.4908 8.97528 29.3122 8.29082 30.3258C7.60635 31.3393 7.19293 32.5113 7.08996 33.73C7.08996 33.8 6.56996 39.49 6.58996 39.54C6.60996 39.59 6.58996 45.23 6.58996 45.26V47.26C6.5926 48.1212 6.93585 48.9463 7.54478 49.5552C8.1537 50.1641 8.97882 50.5074 9.83996 50.51H15.4C16.2611 50.5074 17.0862 50.1641 17.6951 49.5552C18.3041 48.9463 18.6473 48.1212 18.65 47.26V46.26H45.35V47.26C45.3526 48.1212 45.6959 48.9463 46.3048 49.5552C46.9137 50.1641 47.7388 50.5074 48.6 50.51H54.14C55.0011 50.5074 55.8262 50.1641 56.4351 49.5552C57.0441 48.9463 57.3873 48.1212 57.39 47.26V45.26C57.39 45.2 57.39 39.59 57.39 39.54C57.39 39.49 56.87 33.79 56.89 33.73C56.789 32.5133 56.3786 31.3427 55.6977 30.3293C55.0169 29.3159 54.0882 28.4934 53 27.94L52.44 25.28H52.97V26.18C52.9678 26.327 52.9981 26.4726 53.0586 26.6065C53.1191 26.7404 53.2084 26.8593 53.3201 26.9548C53.4318 27.0503 53.5632 27.1199 53.7049 27.1589C53.8466 27.1978 53.9952 27.205 54.14 27.18L60.14 26.18C60.3766 26.1417 60.5916 26.0196 60.7458 25.8361C60.8999 25.6525 60.983 25.4197 60.98 25.18V21.35C60.98 21.0882 60.8774 20.8369 60.6942 20.6499C60.5109 20.4629 60.2617 20.3553 60 20.35ZM9.05996 25L4.99996 24.33V22.33H9.05996V25ZM14.28 27.18H13.28L15 18.77C15.2663 17.8224 15.8381 16.9892 16.6264 16.3997C17.4148 15.8103 18.3757 15.4975 19.36 15.51H44.64C45.6182 15.4928 46.5749 15.7977 47.3628 16.3778C48.1506 16.9578 48.7259 17.7808 49 18.72L50.78 27.18H14.28V27.18ZM59 24.33L54.94 25V22.35H59V24.33Z" fill="#534741"/>
<path d="M52.8899 33C52.5321 32.6676 52.1059 32.4176 51.6412 32.2673C51.1765 32.117 50.6846 32.0701 50.1999 32.13L42.9999 33.58C42.6098 33.6533 42.2436 33.821 41.9333 34.0686C41.623 34.3161 41.3781 34.6359 41.2199 35C40.3199 37.06 42.3699 39.36 44.4699 39.31H50.5999C53.7599 39.38 55.2599 35.06 52.8899 33Z" fill="white"/>
<path d="M21.54 33.58L14.31 32.12H14.2C9.40996 31.86 9.19996 39.19 13.91 39.33H20C23.24 39.42 25.14 34.6 21.54 33.58Z" fill="white"/>
<path d="M39.3099 40.36H24.6899C24.1377 40.36 23.6899 40.8077 23.6899 41.36V45.26C23.6899 45.8123 24.1377 46.26 24.6899 46.26H39.3099C39.8622 46.26 40.3099 45.8123 40.3099 45.26V41.36C40.3099 40.8077 39.8622 40.36 39.3099 40.36Z" fill="#FBB03B"/>
</svg>
